<?xml version="1.0" encoding="utf-8" standalone="no"?>
<!DOCTYPE svg PUBLIC "-//W3C//DTD SVG 1.1//EN"
  "http://www.w3.org/Graphics/SVG/1.1/DTD/svg11.dtd">
<svg xmlns:xlink="http://www.w3.org/1999/xlink" width="753.083591pt" height="464.636328pt" viewBox="0 0 753.083591 464.636328" xmlns="http://www.w3.org/2000/svg" version="1.1">
 <metadata>
  <rdf:RDF xmlns:dc="http://purl.org/dc/elements/1.1/" xmlns:cc="http://creativecommons.org/ns#" xmlns:rdf="http://www.w3.org/1999/02/22-rdf-syntax-ns#">
   <cc:Work>
    <dc:type rdf:resource="http://purl.org/dc/dcmitype/StillImage"/>
    <dc:date>2025-10-23T15:57:41.086528</dc:date>
    <dc:format>image/svg+xml</dc:format>
    <dc:creator>
     <cc:Agent>
      <dc:title>Matplotlib v3.7.1, https://matplotlib.org/</dc:title>
     </cc:Agent>
    </dc:creator>
   </cc:Work>
  </rdf:RDF>
 </metadata>
 <defs>
  <style type="text/css">*{stroke-linejoin: round; stroke-linecap: butt}</style>
 </defs>
 <g id="figure_1">
  <g id="patch_1">
   <path d="M 0 464.636328 
L 753.083591 464.636328 
L 753.083591 0 
L 0 0 
z
" style="fill: #ffffff"/>
  </g>
  <g id="axes_1">
   <g id="patch_2">
    <path d="M 111.813281 384.0725 
L 708.299188 384.0725 
L 708.299188 53.4525 
L 111.813281 53.4525 
z
" style="fill: #ffffff"/>
   </g>
   <g id="matplotlib.axis_1">
    <g id="xtick_1">
     <g id="text_1">
      <text style="fill: #262626; font: 16.5px 'Arial', 'DejaVu Sans', 'Liberation Sans', 'Bitstream Vera Sans', sans-serif; text-anchor: middle" x="178.313016" y="408.382891" transform="rotate(-0 178.313016 408.382891)">46</text>
     </g>
    </g>
    <g id="xtick_2">
     <g id="text_2">
      <text style="fill: #262626; font: 16.5px 'Arial', 'DejaVu Sans', 'Liberation Sans', 'Bitstream Vera Sans', sans-serif; text-anchor: middle" x="253.969448" y="408.382891" transform="rotate(-0 253.969448 408.382891)">48</text>
     </g>
    </g>
    <g id="xtick_3">
     <g id="text_3">
      <text style="fill: #262626; font: 16.5px 'Arial', 'DejaVu Sans', 'Liberation Sans', 'Bitstream Vera Sans', sans-serif; text-anchor: middle" x="329.625881" y="408.382891" transform="rotate(-0 329.625881 408.382891)">50</text>
     </g>
    </g>
    <g id="xtick_4">
     <g id="text_4">
      <text style="fill: #262626; font: 16.5px 'Arial', 'DejaVu Sans', 'Liberation Sans', 'Bitstream Vera Sans', sans-serif; text-anchor: middle" x="405.282314" y="408.382891" transform="rotate(-0 405.282314 408.382891)">52</text>
     </g>
    </g>
    <g id="xtick_5">
     <g id="text_5">
      <text style="fill: #262626; font: 16.5px 'Arial', 'DejaVu Sans', 'Liberation Sans', 'Bitstream Vera Sans', sans-serif; text-anchor: middle" x="480.938746" y="408.382891" transform="rotate(-0 480.938746 408.382891)">54</text>
     </g>
    </g>
    <g id="xtick_6">
     <g id="text_6">
      <text style="fill: #262626; font: 16.5px 'Arial', 'DejaVu Sans', 'Liberation Sans', 'Bitstream Vera Sans', sans-serif; text-anchor: middle" x="556.595179" y="408.382891" transform="rotate(-0 556.595179 408.382891)">56</text>
     </g>
    </g>
    <g id="xtick_7">
     <g id="text_7">
      <text style="fill: #262626; font: 16.5px 'Arial', 'DejaVu Sans', 'Liberation Sans', 'Bitstream Vera Sans', sans-serif; text-anchor: middle" x="632.251612" y="408.382891" transform="rotate(-0 632.251612 408.382891)">58</text>
     </g>
    </g>
    <g id="xtick_8">
     <g id="text_8">
      <text style="fill: #262626; font: 16.5px 'Arial', 'DejaVu Sans', 'Liberation Sans', 'Bitstream Vera Sans', sans-serif; text-anchor: middle" x="707.908044" y="408.382891" transform="rotate(-0 707.908044 408.382891)">60</text>
     </g>
    </g>
    <g id="text_9">
     <text style="fill: #262626; font: 14px 'Arial', 'DejaVu Sans', 'Liberation Sans', 'Bitstream Vera Sans', sans-serif; text-anchor: middle" x="410.056235" y="425.853828" transform="rotate(-0 410.056235 425.853828)">GC [%]</text>
    </g>
   </g>
   <g id="matplotlib.axis_2">
    <g id="ytick_1">
     <g id="text_10">
      <text style="fill: #262626; font: 16.5px 'Arial', 'DejaVu Sans', 'Liberation Sans', 'Bitstream Vera Sans', sans-serif; text-anchor: end" x="99.313281" y="355.627581" transform="rotate(-0 99.313281 355.627581)">−1000</text>
     </g>
    </g>
    <g id="ytick_2">
     <g id="text_11">
      <text style="fill: #262626; font: 16.5px 'Arial', 'DejaVu Sans', 'Liberation Sans', 'Bitstream Vera Sans', sans-serif; text-anchor: end" x="99.313281" y="292.48396" transform="rotate(-0 99.313281 292.48396)">−950</text>
     </g>
    </g>
    <g id="ytick_3">
     <g id="text_12">
      <text style="fill: #262626; font: 16.5px 'Arial', 'DejaVu Sans', 'Liberation Sans', 'Bitstream Vera Sans', sans-serif; text-anchor: end" x="99.313281" y="229.340339" transform="rotate(-0 99.313281 229.340339)">−900</text>
     </g>
    </g>
    <g id="ytick_4">
     <g id="text_13">
      <text style="fill: #262626; font: 16.5px 'Arial', 'DejaVu Sans', 'Liberation Sans', 'Bitstream Vera Sans', sans-serif; text-anchor: end" x="99.313281" y="166.196718" transform="rotate(-0 99.313281 166.196718)">−850</text>
     </g>
    </g>
    <g id="ytick_5">
     <g id="text_14">
      <text style="fill: #262626; font: 16.5px 'Arial', 'DejaVu Sans', 'Liberation Sans', 'Bitstream Vera Sans', sans-serif; text-anchor: end" x="99.313281" y="103.053097" transform="rotate(-0 99.313281 103.053097)">−800</text>
     </g>
    </g>
    <g id="text_15">
     <text style="fill: #262626; font: 14px 'Arial', 'DejaVu Sans', 'Liberation Sans', 'Bitstream Vera Sans', sans-serif; text-anchor: middle" x="46.191562" y="218.7625" transform="rotate(-90 46.191562 218.7625)">MFE [kcal/mol]</text>
    </g>
   </g>
   <g id="PathCollection_1">
    <defs>
     <path id="C0_0_b4991c2132" d="M 0 6.123724 
C 1.624031 6.123724 3.181764 5.47849 4.330127 4.330127 
C 5.47849 3.181764 6.123724 1.624031 6.123724 -0 
C 6.123724 -1.624031 5.47849 -3.181764 4.330127 -4.330127 
C 3.181764 -5.47849 1.624031 -6.123724 0 -6.123724 
C -1.624031 -6.123724 -3.181764 -5.47849 -4.330127 -4.330127 
C -5.47849 -3.181764 -6.123724 -1.624031 -6.123724 0 
C -6.123724 1.624031 -5.47849 3.181764 -4.330127 4.330127 
C -3.181764 5.47849 -1.624031 6.123724 0 6.123724 
z
"/>
    </defs>
    <g clip-path="url(#pea9d9b7e62)">
     <use xlink:href="#C0_0_b4991c2132" x="138.926277" y="68.480682" style="fill: #6f92f3; stroke: #000000; stroke-width: 0.979796"/>
    </g>
    <g clip-path="url(#pea9d9b7e62)">
     <use xlink:href="#C0_0_b4991c2132" x="681.186192" y="369.044318" style="fill: #aac7fd; stroke: #000000; stroke-width: 0.979796"/>
    </g>
    <g clip-path="url(#pea9d9b7e62)">
     <use xlink:href="#C0_0_b4991c2132" x="534.594288" y="357.425876" style="fill: #dddcdc; stroke: #000000; stroke-width: 0.979796"/>
    </g>
    <g clip-path="url(#pea9d9b7e62)">
     <use xlink:href="#C0_0_b4991c2132" x="512.540438" y="214.973883" style="fill: #f7b89c; stroke: #000000; stroke-width: 0.979796"/>
    </g>
    <g clip-path="url(#pea9d9b7e62)">
     <use xlink:href="#C0_0_b4991c2132" x="511.24293" y="252.228619" style="fill: #e7745b; stroke: #000000; stroke-width: 0.979796"/>
    </g>
   </g>
   <g id="PathCollection_2"/>
   <g id="PathCollection_3"/>
   <g id="PathCollection_4"/>
   <g id="PathCollection_5"/>
   <g id="PathCollection_6"/>
   <g id="line2d_1">
    <path d="M 707.908044 384.0725 
L 707.908044 53.4525 
" clip-path="url(#pea9d9b7e62)" style="fill: none; stroke-dasharray: 7.4,3.2; stroke-dashoffset: 0; stroke: #ff0000; stroke-width: 2"/>
   </g>
   <g id="patch_3">
    <path d="M 111.813281 384.0725 
L 111.813281 53.4525 
" style="fill: none; stroke: #cccccc; stroke-width: 1.875; stroke-linejoin: miter; stroke-linecap: square"/>
   </g>
   <g id="patch_4">
    <path d="M 708.299188 384.0725 
L 708.299188 53.4525 
" style="fill: none; stroke: #cccccc; stroke-width: 1.875; stroke-linejoin: miter; stroke-linecap: square"/>
   </g>
   <g id="patch_5">
    <path d="M 111.813281 384.0725 
L 708.299188 384.0725 
" style="fill: none; stroke: #cccccc; stroke-width: 1.875; stroke-linejoin: miter; stroke-linecap: square"/>
   </g>
   <g id="patch_6">
    <path d="M 111.813281 53.4525 
L 708.299188 53.4525 
" style="fill: none; stroke: #cccccc; stroke-width: 1.875; stroke-linejoin: miter; stroke-linecap: square"/>
   </g>
   <g id="text_16">
    <text style="fill: #262626; font: 16px 'Arial', 'DejaVu Sans', 'Liberation Sans', 'Bitstream Vera Sans', sans-serif; text-anchor: middle" x="410.056235" y="47.4525" transform="rotate(-0 410.056235 47.4525)">KIT — GC% ~ MFE</text>
   </g>
   <g id="legend_1">
    <g id="PathCollection_7">
     <defs>
      <path id="md53fc24e0d" d="M 0 4.5 
C 1.193414 4.5 2.338109 4.025852 3.181981 3.181981 
C 4.025852 2.338109 4.5 1.193414 4.5 0 
C 4.5 -1.193414 4.025852 -2.338109 3.181981 -3.181981 
C 2.338109 -4.025852 1.193414 -4.5 0 -4.5 
C -1.193414 -4.5 -2.338109 -4.025852 -3.181981 -3.181981 
C -4.025852 -2.338109 -4.5 -1.193414 -4.5 0 
C -4.5 1.193414 -4.025852 2.338109 -3.181981 3.181981 
C -2.338109 4.025852 -1.193414 4.5 0 4.5 
z
" style="stroke: #6f92f3; stroke-width: 1.5"/>
     </defs>
     <g>
      <use xlink:href="#md53fc24e0d" x="528.194876" y="75.799687" style="fill: #6f92f3; stroke: #6f92f3; stroke-width: 1.5"/>
     </g>
    </g>
    <g id="text_17">
     <text style="fill: #262626; font: 16.5px 'Arial', 'DejaVu Sans', 'Liberation Sans', 'Bitstream Vera Sans', sans-serif; text-anchor: start" x="549.644876" y="81.3375" transform="rotate(-0 549.644876 81.3375)">Native</text>
    </g>
    <g id="PathCollection_8">
     <defs>
      <path id="m37bbbf23f5" d="M 0 4.5 
C 1.193414 4.5 2.338109 4.025852 3.181981 3.181981 
C 4.025852 2.338109 4.5 1.193414 4.5 0 
C 4.5 -1.193414 4.025852 -2.338109 3.181981 -3.181981 
C 2.338109 -4.025852 1.193414 -4.5 0 -4.5 
C -1.193414 -4.5 -2.338109 -4.025852 -3.181981 -3.181981 
C -4.025852 -2.338109 -4.5 -1.193414 -4.5 0 
C -4.5 1.193414 -4.025852 2.338109 -3.181981 3.181981 
C -2.338109 4.025852 -1.193414 4.5 0 4.5 
z
" style="stroke: #aac7fd; stroke-width: 1.5"/>
     </defs>
     <g>
      <use xlink:href="#m37bbbf23f5" x="528.194876" y="100.364062" style="fill: #aac7fd; stroke: #aac7fd; stroke-width: 1.5"/>
     </g>
    </g>
    <g id="text_18">
     <text style="fill: #262626; font: 16.5px 'Arial', 'DejaVu Sans', 'Liberation Sans', 'Bitstream Vera Sans', sans-serif; text-anchor: start" x="549.644876" y="105.901875" transform="rotate(-0 549.644876 105.901875)">JBioSeq</text>
    </g>
    <g id="PathCollection_9">
     <defs>
      <path id="meeef6ac5db" d="M 0 4.5 
C 1.193414 4.5 2.338109 4.025852 3.181981 3.181981 
C 4.025852 2.338109 4.5 1.193414 4.5 0 
C 4.5 -1.193414 4.025852 -2.338109 3.181981 -3.181981 
C 2.338109 -4.025852 1.193414 -4.5 0 -4.5 
C -1.193414 -4.5 -2.338109 -4.025852 -3.181981 -3.181981 
C -4.025852 -2.338109 -4.5 -1.193414 -4.5 0 
C -4.5 1.193414 -4.025852 2.338109 -3.181981 3.181981 
C -2.338109 4.025852 -1.193414 4.5 0 4.5 
z
" style="stroke: #dddcdc; stroke-width: 1.5"/>
     </defs>
     <g>
      <use xlink:href="#meeef6ac5db" x="528.194876" y="124.928437" style="fill: #dddcdc; stroke: #dddcdc; stroke-width: 1.5"/>
     </g>
    </g>
    <g id="text_19">
     <text style="fill: #262626; font: 16.5px 'Arial', 'DejaVu Sans', 'Liberation Sans', 'Bitstream Vera Sans', sans-serif; text-anchor: start" x="549.644876" y="130.46625" transform="rotate(-0 549.644876 130.46625)">CodonTransformer</text>
    </g>
    <g id="PathCollection_10">
     <defs>
      <path id="m4a7742bc3a" d="M 0 4.5 
C 1.193414 4.5 2.338109 4.025852 3.181981 3.181981 
C 4.025852 2.338109 4.5 1.193414 4.5 0 
C 4.5 -1.193414 4.025852 -2.338109 3.181981 -3.181981 
C 2.338109 -4.025852 1.193414 -4.5 0 -4.5 
C -1.193414 -4.5 -2.338109 -4.025852 -3.181981 -3.181981 
C -4.025852 -2.338109 -4.5 -1.193414 -4.5 0 
C -4.5 1.193414 -4.025852 2.338109 -3.181981 3.181981 
C -2.338109 4.025852 -1.193414 4.5 0 4.5 
z
" style="stroke: #f7b89c; stroke-width: 1.5"/>
     </defs>
     <g>
      <use xlink:href="#m4a7742bc3a" x="528.194876" y="149.492812" style="fill: #f7b89c; stroke: #f7b89c; stroke-width: 1.5"/>
     </g>
    </g>
    <g id="text_20">
     <text style="fill: #262626; font: 16.5px 'Arial', 'DejaVu Sans', 'Liberation Sans', 'Bitstream Vera Sans', sans-serif; text-anchor: start" x="549.644876" y="155.030625" transform="rotate(-0 549.644876 155.030625)">GenScript</text>
    </g>
    <g id="PathCollection_11">
     <defs>
      <path id="m9879954341" d="M 0 4.5 
C 1.193414 4.5 2.338109 4.025852 3.181981 3.181981 
C 4.025852 2.338109 4.5 1.193414 4.5 0 
C 4.5 -1.193414 4.025852 -2.338109 3.181981 -3.181981 
C 2.338109 -4.025852 1.193414 -4.5 0 -4.5 
C -1.193414 -4.5 -2.338109 -4.025852 -3.181981 -3.181981 
C -4.025852 -2.338109 -4.5 -1.193414 -4.5 0 
C -4.5 1.193414 -4.025852 2.338109 -3.181981 3.181981 
C -2.338109 4.025852 -1.193414 4.5 0 4.5 
z
" style="stroke: #e7745b; stroke-width: 1.5"/>
     </defs>
     <g>
      <use xlink:href="#m9879954341" x="528.194876" y="174.057187" style="fill: #e7745b; stroke: #e7745b; stroke-width: 1.5"/>
     </g>
    </g>
    <g id="text_21">
     <text style="fill: #262626; font: 16.5px 'Arial', 'DejaVu Sans', 'Liberation Sans', 'Bitstream Vera Sans', sans-serif; text-anchor: start" x="549.644876" y="179.595" transform="rotate(-0 549.644876 179.595)">VectorBuilder</text>
    </g>
   </g>
  </g>
 </g>
 <defs>
  <clipPath id="pea9d9b7e62">
   <rect x="111.813281" y="53.4525" width="596.485907" height="330.62"/>
  </clipPath>
 </defs>
</svg>
