<?xml version="1.0" encoding="utf-8" standalone="no"?>
<!DOCTYPE svg PUBLIC "-//W3C//DTD SVG 1.1//EN"
  "http://www.w3.org/Graphics/SVG/1.1/DTD/svg11.dtd">
<svg xmlns:xlink="http://www.w3.org/1999/xlink" width="753.070234pt" height="464.636328pt" viewBox="0 0 753.070234 464.636328" xmlns="http://www.w3.org/2000/svg" version="1.1">
 <metadata>
  <rdf:RDF xmlns:dc="http://purl.org/dc/elements/1.1/" xmlns:cc="http://creativecommons.org/ns#" xmlns:rdf="http://www.w3.org/1999/02/22-rdf-syntax-ns#">
   <cc:Work>
    <dc:type rdf:resource="http://purl.org/dc/dcmitype/StillImage"/>
    <dc:date>2025-10-23T15:57:43.611820</dc:date>
    <dc:format>image/svg+xml</dc:format>
    <dc:creator>
     <cc:Agent>
      <dc:title>Matplotlib v3.7.1, https://matplotlib.org/</dc:title>
     </cc:Agent>
    </dc:creator>
   </cc:Work>
  </rdf:RDF>
 </metadata>
 <defs>
  <style type="text/css">*{stroke-linejoin: round; stroke-linecap: butt}</style>
 </defs>
 <g id="figure_1">
  <g id="patch_1">
   <path d="M 0 464.636328 
L 753.070234 464.636328 
L 753.070234 0 
L 0 0 
z
" style="fill: #ffffff"/>
  </g>
  <g id="axes_1">
   <g id="patch_2">
    <path d="M 102.637734 384.0725 
L 717.070234 384.0725 
L 717.070234 53.4525 
L 102.637734 53.4525 
z
" style="fill: #ffffff"/>
   </g>
   <g id="matplotlib.axis_1">
    <g id="xtick_1">
     <g id="text_1">
      <text style="fill: #262626; font: 16.5px 'Arial', 'DejaVu Sans', 'Liberation Sans', 'Bitstream Vera Sans', sans-serif; text-anchor: middle" x="105.060978" y="408.382891" transform="rotate(-0 105.060978 408.382891)">57.5</text>
     </g>
    </g>
    <g id="xtick_2">
     <g id="text_2">
      <text style="fill: #262626; font: 16.5px 'Arial', 'DejaVu Sans', 'Liberation Sans', 'Bitstream Vera Sans', sans-serif; text-anchor: middle" x="178.648705" y="408.382891" transform="rotate(-0 178.648705 408.382891)">58.0</text>
     </g>
    </g>
    <g id="xtick_3">
     <g id="text_3">
      <text style="fill: #262626; font: 16.5px 'Arial', 'DejaVu Sans', 'Liberation Sans', 'Bitstream Vera Sans', sans-serif; text-anchor: middle" x="252.236432" y="408.382891" transform="rotate(-0 252.236432 408.382891)">58.5</text>
     </g>
    </g>
    <g id="xtick_4">
     <g id="text_4">
      <text style="fill: #262626; font: 16.5px 'Arial', 'DejaVu Sans', 'Liberation Sans', 'Bitstream Vera Sans', sans-serif; text-anchor: middle" x="325.824159" y="408.382891" transform="rotate(-0 325.824159 408.382891)">59.0</text>
     </g>
    </g>
    <g id="xtick_5">
     <g id="text_5">
      <text style="fill: #262626; font: 16.5px 'Arial', 'DejaVu Sans', 'Liberation Sans', 'Bitstream Vera Sans', sans-serif; text-anchor: middle" x="399.411886" y="408.382891" transform="rotate(-0 399.411886 408.382891)">59.5</text>
     </g>
    </g>
    <g id="xtick_6">
     <g id="text_6">
      <text style="fill: #262626; font: 16.5px 'Arial', 'DejaVu Sans', 'Liberation Sans', 'Bitstream Vera Sans', sans-serif; text-anchor: middle" x="472.999613" y="408.382891" transform="rotate(-0 472.999613 408.382891)">60.0</text>
     </g>
    </g>
    <g id="xtick_7">
     <g id="text_7">
      <text style="fill: #262626; font: 16.5px 'Arial', 'DejaVu Sans', 'Liberation Sans', 'Bitstream Vera Sans', sans-serif; text-anchor: middle" x="546.58734" y="408.382891" transform="rotate(-0 546.58734 408.382891)">60.5</text>
     </g>
    </g>
    <g id="xtick_8">
     <g id="text_8">
      <text style="fill: #262626; font: 16.5px 'Arial', 'DejaVu Sans', 'Liberation Sans', 'Bitstream Vera Sans', sans-serif; text-anchor: middle" x="620.175067" y="408.382891" transform="rotate(-0 620.175067 408.382891)">61.0</text>
     </g>
    </g>
    <g id="xtick_9">
     <g id="text_9">
      <text style="fill: #262626; font: 16.5px 'Arial', 'DejaVu Sans', 'Liberation Sans', 'Bitstream Vera Sans', sans-serif; text-anchor: middle" x="693.762794" y="408.382891" transform="rotate(-0 693.762794 408.382891)">61.5</text>
     </g>
    </g>
    <g id="text_10">
     <text style="fill: #262626; font: 14px 'Arial', 'DejaVu Sans', 'Liberation Sans', 'Bitstream Vera Sans', sans-serif; text-anchor: middle" x="409.853984" y="425.853828" transform="rotate(-0 409.853984 425.853828)">GC [%]</text>
    </g>
   </g>
   <g id="matplotlib.axis_2">
    <g id="ytick_1">
     <g id="text_11">
      <text style="fill: #262626; font: 16.5px 'Arial', 'DejaVu Sans', 'Liberation Sans', 'Bitstream Vera Sans', sans-serif; text-anchor: end" x="90.137734" y="334.115668" transform="rotate(-0 90.137734 334.115668)">−440</text>
     </g>
    </g>
    <g id="ytick_2">
     <g id="text_12">
      <text style="fill: #262626; font: 16.5px 'Arial', 'DejaVu Sans', 'Liberation Sans', 'Bitstream Vera Sans', sans-serif; text-anchor: end" x="90.137734" y="267.175006" transform="rotate(-0 90.137734 267.175006)">−420</text>
     </g>
    </g>
    <g id="ytick_3">
     <g id="text_13">
      <text style="fill: #262626; font: 16.5px 'Arial', 'DejaVu Sans', 'Liberation Sans', 'Bitstream Vera Sans', sans-serif; text-anchor: end" x="90.137734" y="200.234343" transform="rotate(-0 90.137734 200.234343)">−400</text>
     </g>
    </g>
    <g id="ytick_4">
     <g id="text_14">
      <text style="fill: #262626; font: 16.5px 'Arial', 'DejaVu Sans', 'Liberation Sans', 'Bitstream Vera Sans', sans-serif; text-anchor: end" x="90.137734" y="133.293681" transform="rotate(-0 90.137734 133.293681)">−380</text>
     </g>
    </g>
    <g id="ytick_5">
     <g id="text_15">
      <text style="fill: #262626; font: 16.5px 'Arial', 'DejaVu Sans', 'Liberation Sans', 'Bitstream Vera Sans', sans-serif; text-anchor: end" x="90.137734" y="66.353018" transform="rotate(-0 90.137734 66.353018)">−360</text>
     </g>
    </g>
    <g id="text_16">
     <text style="fill: #262626; font: 14px 'Arial', 'DejaVu Sans', 'Liberation Sans', 'Bitstream Vera Sans', sans-serif; text-anchor: middle" x="46.191563" y="218.7625" transform="rotate(-90 46.191563 218.7625)">MFE [kcal/mol]</text>
    </g>
   </g>
   <g id="PathCollection_1">
    <defs>
     <path id="C0_0_39a4bc0f76" d="M 0 6.123724 
C 1.624031 6.123724 3.181764 5.47849 4.330127 4.330127 
C 5.47849 3.181764 6.123724 1.624031 6.123724 -0 
C 6.123724 -1.624031 5.47849 -3.181764 4.330127 -4.330127 
C 3.181764 -5.47849 1.624031 -6.123724 0 -6.123724 
C -1.624031 -6.123724 -3.181764 -5.47849 -4.330127 -4.330127 
C -5.47849 -3.181764 -6.123724 -1.624031 -6.123724 0 
C -6.123724 1.624031 -5.47849 3.181764 -4.330127 4.330127 
C -3.181764 5.47849 -1.624031 6.123724 0 6.123724 
z
"/>
    </defs>
    <g clip-path="url(#p0db1d88fd0)">
     <use xlink:href="#C0_0_39a4bc0f76" x="130.566484" y="138.433654" style="fill: #6f92f3; stroke: #000000; stroke-width: 0.979796"/>
    </g>
    <g clip-path="url(#p0db1d88fd0)">
     <use xlink:href="#C0_0_39a4bc0f76" x="166.992409" y="207.047833" style="fill: #aac7fd; stroke: #000000; stroke-width: 0.979796"/>
    </g>
    <g clip-path="url(#p0db1d88fd0)">
     <use xlink:href="#C0_0_39a4bc0f76" x="689.141484" y="369.044318" style="fill: #dddcdc; stroke: #000000; stroke-width: 0.979796"/>
    </g>
    <g clip-path="url(#p0db1d88fd0)">
     <use xlink:href="#C0_0_39a4bc0f76" x="215.560309" y="68.480682" style="fill: #f7b89c; stroke: #000000; stroke-width: 0.979796"/>
    </g>
    <g clip-path="url(#p0db1d88fd0)">
     <use xlink:href="#C0_0_39a4bc0f76" x="312.710826" y="183.283979" style="fill: #e7745b; stroke: #000000; stroke-width: 0.979796"/>
    </g>
   </g>
   <g id="PathCollection_2"/>
   <g id="PathCollection_3"/>
   <g id="PathCollection_4"/>
   <g id="PathCollection_5"/>
   <g id="PathCollection_6"/>
   <g id="line2d_1">
    <path d="M 472.999613 384.0725 
L 472.999613 53.4525 
" clip-path="url(#p0db1d88fd0)" style="fill: none; stroke-dasharray: 7.4,3.2; stroke-dashoffset: 0; stroke: #ff0000; stroke-width: 2"/>
   </g>
   <g id="patch_3">
    <path d="M 102.637734 384.0725 
L 102.637734 53.4525 
" style="fill: none; stroke: #cccccc; stroke-width: 1.875; stroke-linejoin: miter; stroke-linecap: square"/>
   </g>
   <g id="patch_4">
    <path d="M 717.070234 384.0725 
L 717.070234 53.4525 
" style="fill: none; stroke: #cccccc; stroke-width: 1.875; stroke-linejoin: miter; stroke-linecap: square"/>
   </g>
   <g id="patch_5">
    <path d="M 102.637734 384.0725 
L 717.070234 384.0725 
" style="fill: none; stroke: #cccccc; stroke-width: 1.875; stroke-linejoin: miter; stroke-linecap: square"/>
   </g>
   <g id="patch_6">
    <path d="M 102.637734 53.4525 
L 717.070234 53.4525 
" style="fill: none; stroke: #cccccc; stroke-width: 1.875; stroke-linejoin: miter; stroke-linecap: square"/>
   </g>
   <g id="text_17">
    <text style="fill: #262626; font: 16px 'Arial', 'DejaVu Sans', 'Liberation Sans', 'Bitstream Vera Sans', sans-serif; text-anchor: middle" x="409.853984" y="47.4525" transform="rotate(-0 409.853984 47.4525)">PAX3 — GC% ~ MFE</text>
   </g>
   <g id="legend_1">
    <g id="PathCollection_7">
     <defs>
      <path id="m75c0fd0de1" d="M 0 4.5 
C 1.193414 4.5 2.338109 4.025852 3.181981 3.181981 
C 4.025852 2.338109 4.5 1.193414 4.5 0 
C 4.5 -1.193414 4.025852 -2.338109 3.181981 -3.181981 
C 2.338109 -4.025852 1.193414 -4.5 0 -4.5 
C -1.193414 -4.5 -2.338109 -4.025852 -3.181981 -3.181981 
C -4.025852 -2.338109 -4.5 -1.193414 -4.5 0 
C -4.5 1.193414 -4.025852 2.338109 -3.181981 3.181981 
C -2.338109 4.025852 -1.193414 4.5 0 4.5 
z
" style="stroke: #6f92f3; stroke-width: 1.5"/>
     </defs>
     <g>
      <use xlink:href="#m75c0fd0de1" x="536.786456" y="75.799687" style="fill: #6f92f3; stroke: #6f92f3; stroke-width: 1.5"/>
     </g>
    </g>
    <g id="text_18">
     <text style="fill: #262626; font: 16.5px 'Arial', 'DejaVu Sans', 'Liberation Sans', 'Bitstream Vera Sans', sans-serif; text-anchor: start" x="558.236456" y="81.3375" transform="rotate(-0 558.236456 81.3375)">Native</text>
    </g>
    <g id="PathCollection_8">
     <defs>
      <path id="md21eb4375d" d="M 0 4.5 
C 1.193414 4.5 2.338109 4.025852 3.181981 3.181981 
C 4.025852 2.338109 4.5 1.193414 4.5 0 
C 4.5 -1.193414 4.025852 -2.338109 3.181981 -3.181981 
C 2.338109 -4.025852 1.193414 -4.5 0 -4.5 
C -1.193414 -4.5 -2.338109 -4.025852 -3.181981 -3.181981 
C -4.025852 -2.338109 -4.5 -1.193414 -4.5 0 
C -4.5 1.193414 -4.025852 2.338109 -3.181981 3.181981 
C -2.338109 4.025852 -1.193414 4.5 0 4.5 
z
" style="stroke: #aac7fd; stroke-width: 1.5"/>
     </defs>
     <g>
      <use xlink:href="#md21eb4375d" x="536.786456" y="100.364062" style="fill: #aac7fd; stroke: #aac7fd; stroke-width: 1.5"/>
     </g>
    </g>
    <g id="text_19">
     <text style="fill: #262626; font: 16.5px 'Arial', 'DejaVu Sans', 'Liberation Sans', 'Bitstream Vera Sans', sans-serif; text-anchor: start" x="558.236456" y="105.901875" transform="rotate(-0 558.236456 105.901875)">JBioSeq</text>
    </g>
    <g id="PathCollection_9">
     <defs>
      <path id="mb1853d6687" d="M 0 4.5 
C 1.193414 4.5 2.338109 4.025852 3.181981 3.181981 
C 4.025852 2.338109 4.5 1.193414 4.5 0 
C 4.5 -1.193414 4.025852 -2.338109 3.181981 -3.181981 
C 2.338109 -4.025852 1.193414 -4.5 0 -4.5 
C -1.193414 -4.5 -2.338109 -4.025852 -3.181981 -3.181981 
C -4.025852 -2.338109 -4.5 -1.193414 -4.5 0 
C -4.5 1.193414 -4.025852 2.338109 -3.181981 3.181981 
C -2.338109 4.025852 -1.193414 4.5 0 4.5 
z
" style="stroke: #dddcdc; stroke-width: 1.5"/>
     </defs>
     <g>
      <use xlink:href="#mb1853d6687" x="536.786456" y="124.928437" style="fill: #dddcdc; stroke: #dddcdc; stroke-width: 1.5"/>
     </g>
    </g>
    <g id="text_20">
     <text style="fill: #262626; font: 16.5px 'Arial', 'DejaVu Sans', 'Liberation Sans', 'Bitstream Vera Sans', sans-serif; text-anchor: start" x="558.236456" y="130.46625" transform="rotate(-0 558.236456 130.46625)">CodonTransformer</text>
    </g>
    <g id="PathCollection_10">
     <defs>
      <path id="mb2bd877c5e" d="M 0 4.5 
C 1.193414 4.5 2.338109 4.025852 3.181981 3.181981 
C 4.025852 2.338109 4.5 1.193414 4.5 0 
C 4.5 -1.193414 4.025852 -2.338109 3.181981 -3.181981 
C 2.338109 -4.025852 1.193414 -4.5 0 -4.5 
C -1.193414 -4.5 -2.338109 -4.025852 -3.181981 -3.181981 
C -4.025852 -2.338109 -4.5 -1.193414 -4.5 0 
C -4.5 1.193414 -4.025852 2.338109 -3.181981 3.181981 
C -2.338109 4.025852 -1.193414 4.5 0 4.5 
z
" style="stroke: #f7b89c; stroke-width: 1.5"/>
     </defs>
     <g>
      <use xlink:href="#mb2bd877c5e" x="536.786456" y="149.492812" style="fill: #f7b89c; stroke: #f7b89c; stroke-width: 1.5"/>
     </g>
    </g>
    <g id="text_21">
     <text style="fill: #262626; font: 16.5px 'Arial', 'DejaVu Sans', 'Liberation Sans', 'Bitstream Vera Sans', sans-serif; text-anchor: start" x="558.236456" y="155.030625" transform="rotate(-0 558.236456 155.030625)">GenScript</text>
    </g>
    <g id="PathCollection_11">
     <defs>
      <path id="mdbda78e4fc" d="M 0 4.5 
C 1.193414 4.5 2.338109 4.025852 3.181981 3.181981 
C 4.025852 2.338109 4.5 1.193414 4.5 0 
C 4.5 -1.193414 4.025852 -2.338109 3.181981 -3.181981 
C 2.338109 -4.025852 1.193414 -4.5 0 -4.5 
C -1.193414 -4.5 -2.338109 -4.025852 -3.181981 -3.181981 
C -4.025852 -2.338109 -4.5 -1.193414 -4.5 0 
C -4.5 1.193414 -4.025852 2.338109 -3.181981 3.181981 
C -2.338109 4.025852 -1.193414 4.5 0 4.5 
z
" style="stroke: #e7745b; stroke-width: 1.5"/>
     </defs>
     <g>
      <use xlink:href="#mdbda78e4fc" x="536.786456" y="174.057187" style="fill: #e7745b; stroke: #e7745b; stroke-width: 1.5"/>
     </g>
    </g>
    <g id="text_22">
     <text style="fill: #262626; font: 16.5px 'Arial', 'DejaVu Sans', 'Liberation Sans', 'Bitstream Vera Sans', sans-serif; text-anchor: start" x="558.236456" y="179.595" transform="rotate(-0 558.236456 179.595)">VectorBuilder</text>
    </g>
   </g>
  </g>
 </g>
 <defs>
  <clipPath id="p0db1d88fd0">
   <rect x="102.637734" y="53.4525" width="614.4325" height="330.62"/>
  </clipPath>
 </defs>
</svg>
